<svg width="512" height="512" viewBox="0 0 512 512" fill="none" xmlns="http://www.w3.org/2000/svg">
<mask id="path-1-outside-1_2_781" maskUnits="userSpaceOnUse" x="140" y="75.6398" width="232" height="361" fill="black">
<rect fill="white" x="140" y="75.6398" width="232" height="361"/>
<path fill-rule="evenodd" clip-rule="evenodd" d="M254.842 76.6398H257.158C319.932 76.6398 371 126.308 371 187.25V383.333C371 385.624 370.088 387.821 368.465 389.441C366.842 391.061 364.64 391.971 362.344 391.971H336.724V430.475C336.721 431.387 336.467 432.281 335.99 433.059C335.513 433.837 334.831 434.47 334.019 434.888C333.207 435.307 332.296 435.495 331.384 435.433C330.472 435.371 329.595 435.06 328.847 434.535L269.146 392.079H149.656C147.36 392.079 145.158 391.169 143.535 389.549C141.912 387.929 141 385.732 141 383.441V187.358C141 126.308 192.089 76.6398 254.842 76.6398ZM328.068 383.29H362.344V383.16V187.207C362.344 130.908 315.15 85.1266 257.158 85.1266H254.842C196.85 85.1266 149.656 130.908 149.656 187.207V383.29H270.725H272.305L325.71 419.807C325.938 419.959 326.203 420.048 326.477 420.061C326.751 420.075 327.023 420.015 327.265 419.886C327.507 419.758 327.71 419.566 327.851 419.331C327.993 419.097 328.068 418.828 328.068 418.555V383.29ZM206.458 151.639H218.922L236.817 202.625H225.868L222.795 193.448H202.433L199.382 202.625H188.562L206.458 151.639ZM212.733 163.193L205.722 184.032H219.722L212.733 163.193ZM258.586 243.678C250.861 241.345 248.892 239.682 248.892 236.551C248.892 233.42 251.358 231.455 255.6 231.455C257.705 231.374 259.782 231.956 261.538 233.119C263.293 234.282 264.637 235.966 265.38 237.933L273.841 233.074C272.263 229.591 269.691 226.649 266.447 224.617C263.202 222.585 259.429 221.553 255.6 221.651C246.836 221.651 238.808 227.179 238.808 236.767C238.808 246.355 246.403 249.724 254.215 251.884C262.026 254.043 265.229 255.533 265.229 259.312C265.229 262.163 263.065 264.711 257.049 264.711C254.501 264.901 251.962 264.237 249.834 262.825C247.706 261.413 246.111 259.334 245.3 256.915L236.644 261.947C239.414 269.505 246.273 274.537 256.703 274.537C267.523 274.537 275.248 268.706 275.248 259.161C275.356 248.944 266.732 246.236 258.63 243.691L258.586 243.678ZM310.368 291.813H321.966L303.076 316.561L322.702 342.777H311.104L292.84 318.893V342.777H282.778V291.813H292.84V314.315L310.368 291.813Z"/>
</mask>
<path fill-rule="evenodd" clip-rule="evenodd" d="M254.842 76.6398H257.158C319.932 76.6398 371 126.308 371 187.25V383.333C371 385.624 370.088 387.821 368.465 389.441C366.842 391.061 364.64 391.971 362.344 391.971H336.724V430.475C336.721 431.387 336.467 432.281 335.99 433.059C335.513 433.837 334.831 434.47 334.019 434.888C333.207 435.307 332.296 435.495 331.384 435.433C330.472 435.371 329.595 435.06 328.847 434.535L269.146 392.079H149.656C147.36 392.079 145.158 391.169 143.535 389.549C141.912 387.929 141 385.732 141 383.441V187.358C141 126.308 192.089 76.6398 254.842 76.6398ZM328.068 383.29H362.344V383.16V187.207C362.344 130.908 315.15 85.1266 257.158 85.1266H254.842C196.85 85.1266 149.656 130.908 149.656 187.207V383.29H270.725H272.305L325.71 419.807C325.938 419.959 326.203 420.048 326.477 420.061C326.751 420.075 327.023 420.015 327.265 419.886C327.507 419.758 327.71 419.566 327.851 419.331C327.993 419.097 328.068 418.828 328.068 418.555V383.29ZM206.458 151.639H218.922L236.817 202.625H225.868L222.795 193.448H202.433L199.382 202.625H188.562L206.458 151.639ZM212.733 163.193L205.722 184.032H219.722L212.733 163.193ZM258.586 243.678C250.861 241.345 248.892 239.682 248.892 236.551C248.892 233.42 251.358 231.455 255.6 231.455C257.705 231.374 259.782 231.956 261.538 233.119C263.293 234.282 264.637 235.966 265.38 237.933L273.841 233.074C272.263 229.591 269.691 226.649 266.447 224.617C263.202 222.585 259.429 221.553 255.6 221.651C246.836 221.651 238.808 227.179 238.808 236.767C238.808 246.355 246.403 249.724 254.215 251.884C262.026 254.043 265.229 255.533 265.229 259.312C265.229 262.163 263.065 264.711 257.049 264.711C254.501 264.901 251.962 264.237 249.834 262.825C247.706 261.413 246.111 259.334 245.3 256.915L236.644 261.947C239.414 269.505 246.273 274.537 256.703 274.537C267.523 274.537 275.248 268.706 275.248 259.161C275.356 248.944 266.732 246.236 258.63 243.691L258.586 243.678ZM310.368 291.813H321.966L303.076 316.561L322.702 342.777H311.104L292.84 318.893V342.777H282.778V291.813H292.84V314.315L310.368 291.813Z" fill="#254C50"/>
<path d="M368.465 389.441L367.758 388.733L368.465 389.441ZM336.724 391.971V390.971H335.724V391.971H336.724ZM336.724 430.475L337.724 430.479V430.475H336.724ZM335.99 433.059L336.842 433.581H336.842L335.99 433.059ZM334.019 434.888L333.561 434H333.561L334.019 434.888ZM331.384 435.433L331.452 434.435L331.384 435.433ZM328.847 434.535L328.268 435.35L328.272 435.353L328.847 434.535ZM269.146 392.079L269.725 391.264L269.465 391.079H269.146V392.079ZM143.535 389.549L144.242 388.841H144.242L143.535 389.549ZM362.344 383.29V384.29H363.344V383.29H362.344ZM328.068 383.29V382.29H327.068V383.29H328.068ZM149.656 383.29H148.656V384.29H149.656V383.29ZM272.305 383.29L272.869 382.464L272.614 382.29H272.305V383.29ZM325.71 419.807L325.145 420.632L325.153 420.638L325.71 419.807ZM326.477 420.061L326.527 419.063L326.477 420.061ZM327.265 419.886L326.796 419.003L326.796 419.003L327.265 419.886ZM327.851 419.331L326.995 418.815L326.995 418.815L327.851 419.331ZM328.068 418.555L329.068 418.556V418.555H328.068ZM218.922 151.639L219.865 151.308L219.631 150.639H218.922V151.639ZM206.458 151.639V150.639H205.749L205.514 151.308L206.458 151.639ZM236.817 202.625V203.625H238.228L237.761 202.294L236.817 202.625ZM225.868 202.625L224.92 202.943L225.148 203.625H225.868V202.625ZM222.795 193.448L223.743 193.13L223.515 192.448H222.795V193.448ZM202.433 193.448V192.448H201.712L201.484 193.132L202.433 193.448ZM199.382 202.625V203.625H200.103L200.331 202.941L199.382 202.625ZM188.562 202.625L187.619 202.294L187.152 203.625H188.562V202.625ZM205.722 184.032L204.774 183.713L204.33 185.032H205.722V184.032ZM212.733 163.193L213.681 162.875L212.734 160.052L211.785 162.874L212.733 163.193ZM219.722 184.032V185.032H221.113L220.67 183.714L219.722 184.032ZM258.586 243.678L258.886 242.724L258.875 242.72L258.586 243.678ZM255.6 231.455V232.455H255.619L255.638 232.454L255.6 231.455ZM261.538 233.119L262.09 232.285H262.09L261.538 233.119ZM265.38 237.933L264.445 238.287L264.86 239.385L265.878 238.8L265.38 237.933ZM273.841 233.074L274.339 233.942L275.127 233.489L274.752 232.662L273.841 233.074ZM266.447 224.617L265.916 225.465L266.447 224.617ZM255.6 221.651V222.651H255.612L255.625 222.65L255.6 221.651ZM254.215 251.884L254.481 250.92H254.481L254.215 251.884ZM257.049 264.711V263.711H257.012L256.975 263.714L257.049 264.711ZM245.3 256.915L246.248 256.597L245.858 255.434L244.797 256.051L245.3 256.915ZM236.644 261.947L236.141 261.082L235.417 261.504L235.705 262.291L236.644 261.947ZM275.248 259.161L274.248 259.151V259.161H275.248ZM258.63 243.691L258.33 244.645L258.33 244.645L258.63 243.691ZM321.966 291.813L322.761 292.42L323.988 290.813H321.966V291.813ZM310.368 291.813V290.813H309.879L309.579 291.199L310.368 291.813ZM303.076 316.561L302.281 315.954L301.822 316.555L302.275 317.16L303.076 316.561ZM322.702 342.777V343.777H324.7L323.503 342.178L322.702 342.777ZM311.104 342.777L310.309 343.385L310.609 343.777H311.104V342.777ZM292.84 318.893L293.635 318.286L291.84 315.939V318.893H292.84ZM292.84 342.777V343.777H293.84V342.777H292.84ZM282.778 342.777H281.778V343.777H282.778V342.777ZM282.778 291.813V290.813H281.778V291.813H282.778ZM292.84 291.813H293.84V290.813H292.84V291.813ZM292.84 314.315H291.84V317.226L293.629 314.93L292.84 314.315ZM257.158 75.6398H254.842V77.6398H257.158V75.6398ZM372 187.25C372 125.73 320.457 75.6398 257.158 75.6398V77.6398C319.407 77.6398 370 126.887 370 187.25H372ZM372 383.333V187.25H370V383.333H372ZM369.171 390.149C370.982 388.341 372 385.89 372 383.333H370C370 385.358 369.194 387.301 367.758 388.733L369.171 390.149ZM362.344 392.971C364.905 392.971 367.36 391.956 369.171 390.149L367.758 388.733C366.323 390.166 364.376 390.971 362.344 390.971V392.971ZM336.724 392.971H362.344V390.971H336.724V392.971ZM337.724 430.475V391.971H335.724V430.475H337.724ZM336.842 433.581C337.415 432.647 337.72 431.574 337.724 430.479L335.724 430.471C335.721 431.2 335.518 431.914 335.137 432.536L336.842 433.581ZM334.477 435.777C335.452 435.275 336.27 434.516 336.842 433.581L335.137 432.536C334.756 433.159 334.211 433.665 333.561 434L334.477 435.777ZM331.316 436.431C332.41 436.506 333.503 436.28 334.477 435.777L333.561 434C332.911 434.334 332.182 434.485 331.452 434.435L331.316 436.431ZM328.272 435.353C329.169 435.983 330.222 436.356 331.316 436.431L331.452 434.435C330.722 434.385 330.02 434.137 329.422 433.717L328.272 435.353ZM268.566 392.894L328.268 435.35L329.427 433.72L269.725 391.264L268.566 392.894ZM149.656 393.079H269.146V391.079H149.656V393.079ZM142.829 390.257C144.64 392.064 147.095 393.079 149.656 393.079V391.079C147.625 391.079 145.677 390.274 144.242 388.841L142.829 390.257ZM140 383.441C140 385.998 141.018 388.449 142.829 390.257L144.242 388.841C142.806 387.409 142 385.466 142 383.441H140ZM140 187.358V383.441H142V187.358H140ZM254.842 75.6398C191.564 75.6398 140 125.73 140 187.358H142C142 126.887 192.615 77.6398 254.842 77.6398V75.6398ZM362.344 382.29H328.068V384.29H362.344V382.29ZM361.344 383.16V383.29H363.344V383.16H361.344ZM361.344 187.207V383.16H363.344V187.207H361.344ZM257.158 86.1266C314.626 86.1266 361.344 131.489 361.344 187.207H363.344C363.344 130.328 315.674 84.1266 257.158 84.1266V86.1266ZM254.842 86.1266H257.158V84.1266H254.842V86.1266ZM150.656 187.207C150.656 131.489 197.374 86.1266 254.842 86.1266V84.1266C196.326 84.1266 148.656 130.328 148.656 187.207H150.656ZM150.656 383.29V187.207H148.656V383.29H150.656ZM270.725 382.29H149.656V384.29H270.725V382.29ZM272.305 382.29H270.725V384.29H272.305V382.29ZM326.274 418.981L272.869 382.464L271.741 384.115L325.145 420.632L326.274 418.981ZM326.527 419.063C326.434 419.058 326.344 419.028 326.266 418.976L325.153 420.638C325.531 420.891 325.971 421.037 326.426 421.06L326.527 419.063ZM326.796 419.003C326.714 419.047 326.621 419.068 326.527 419.063L326.426 421.06C326.88 421.083 327.333 420.983 327.734 420.769L326.796 419.003ZM326.995 418.815C326.947 418.894 326.879 418.959 326.796 419.003L327.734 420.769C328.136 420.556 328.473 420.237 328.708 419.848L326.995 418.815ZM327.068 418.553C327.068 418.645 327.043 418.735 326.995 418.815L328.708 419.848C328.943 419.458 329.068 419.012 329.068 418.556L327.068 418.553ZM327.068 383.29V418.555H329.068V383.29H327.068ZM218.922 150.639H206.458V152.639H218.922V150.639ZM237.761 202.294L219.865 151.308L217.978 151.971L235.874 202.957L237.761 202.294ZM225.868 203.625H236.817V201.625H225.868V203.625ZM221.847 193.765L224.92 202.943L226.816 202.308L223.743 193.13L221.847 193.765ZM202.433 194.448H222.795V192.448H202.433V194.448ZM200.331 202.941L203.382 193.763L201.484 193.132L198.433 202.31L200.331 202.941ZM188.562 203.625H199.382V201.625H188.562V203.625ZM205.514 151.308L187.619 202.294L189.506 202.957L207.401 151.971L205.514 151.308ZM206.67 184.351L213.681 163.512L211.785 162.874L204.774 183.713L206.67 184.351ZM219.722 183.032H205.722V185.032H219.722V183.032ZM211.785 163.511L218.774 184.35L220.67 183.714L213.681 162.875L211.785 163.511ZM247.892 236.551C247.892 237.441 248.032 238.289 248.419 239.092C248.808 239.897 249.412 240.588 250.24 241.213C251.854 242.429 254.435 243.469 258.297 244.635L258.875 242.72C255.012 241.554 252.745 240.596 251.444 239.615C250.814 239.141 250.443 238.684 250.221 238.223C249.997 237.761 249.892 237.228 249.892 236.551H247.892ZM255.6 230.455C253.339 230.455 251.422 230.977 250.045 232.036C248.637 233.12 247.892 234.695 247.892 236.551H249.892C249.892 235.277 250.379 234.303 251.265 233.621C252.182 232.915 253.619 232.455 255.6 232.455V230.455ZM262.09 232.285C260.16 231.007 257.876 230.367 255.561 230.456L255.638 232.454C257.534 232.381 259.405 232.906 260.985 233.953L262.09 232.285ZM266.316 237.58C265.499 235.416 264.02 233.564 262.09 232.285L260.985 233.953C262.566 235 263.776 236.516 264.445 238.287L266.316 237.58ZM273.343 232.207L264.882 237.066L265.878 238.8L274.339 233.942L273.343 232.207ZM265.916 225.465C268.994 227.392 271.434 230.183 272.93 233.487L274.752 232.662C273.093 228.999 270.389 225.906 266.977 223.77L265.916 225.465ZM255.625 222.65C259.258 222.558 262.838 223.537 265.916 225.465L266.977 223.77C263.566 221.633 259.6 220.549 255.574 220.651L255.625 222.65ZM239.808 236.767C239.808 227.896 247.208 222.651 255.6 222.651V220.651C246.464 220.651 237.808 226.462 237.808 236.767H239.808ZM254.481 250.92C250.597 249.846 246.915 248.507 244.208 246.332C241.558 244.202 239.808 241.244 239.808 236.767H237.808C237.808 241.879 239.855 245.399 242.956 247.891C246 250.337 250.021 251.762 253.948 252.848L254.481 250.92ZM266.229 259.312C266.229 258.219 265.995 257.233 265.464 256.347C264.939 255.47 264.162 254.758 263.183 254.144C261.263 252.939 258.368 251.994 254.481 250.92L253.948 252.848C257.874 253.933 260.486 254.813 262.12 255.838C262.917 256.338 263.43 256.843 263.749 257.375C264.063 257.899 264.229 258.517 264.229 259.312H266.229ZM257.049 265.711C260.18 265.711 262.472 265.051 264.004 263.874C265.571 262.67 266.229 261.013 266.229 259.312H264.229C264.229 260.463 263.805 261.504 262.786 262.288C261.732 263.098 259.935 263.711 257.049 263.711V265.711ZM249.281 263.658C251.595 265.193 254.354 265.914 257.124 265.708L256.975 263.714C254.648 263.887 252.33 263.281 250.387 261.992L249.281 263.658ZM244.351 257.233C245.233 259.863 246.968 262.124 249.281 263.658L250.387 261.992C248.444 260.703 246.988 258.804 246.248 256.597L244.351 257.233ZM237.147 262.812L245.802 257.78L244.797 256.051L236.141 261.082L237.147 262.812ZM256.703 273.537C246.643 273.537 240.192 268.722 237.583 261.603L235.705 262.291C238.636 270.288 245.904 275.537 256.703 275.537V273.537ZM274.248 259.161C274.248 263.638 272.449 267.193 269.405 269.65C266.34 272.125 261.943 273.537 256.703 273.537V275.537C262.283 275.537 267.159 274.034 270.661 271.207C274.184 268.362 276.248 264.23 276.248 259.161H274.248ZM258.33 244.645C262.421 245.93 266.434 247.2 269.433 249.36C272.35 251.461 274.298 254.398 274.248 259.151L276.248 259.172C276.305 253.708 273.996 250.181 270.602 247.737C267.29 245.353 262.94 243.997 258.929 242.737L258.33 244.645ZM258.286 244.632L258.33 244.645L258.93 242.737L258.886 242.724L258.286 244.632ZM321.966 290.813H310.368V292.813H321.966V290.813ZM303.87 317.168L322.761 292.42L321.171 291.206L302.281 315.954L303.87 317.168ZM323.503 342.178L303.876 315.962L302.275 317.16L321.902 343.377L323.503 342.178ZM311.104 343.777H322.702V341.777H311.104V343.777ZM292.046 319.501L310.309 343.385L311.898 342.17L293.635 318.286L292.046 319.501ZM293.84 342.777V318.893H291.84V342.777H293.84ZM282.778 343.777H292.84V341.777H282.778V343.777ZM281.778 291.813V342.777H283.778V291.813H281.778ZM292.84 290.813H282.778V292.813H292.84V290.813ZM293.84 314.315V291.813H291.84V314.315H293.84ZM309.579 291.199L292.051 313.701L293.629 314.93L311.157 292.428L309.579 291.199Z" fill="#254C50" mask="url(#path-1-outside-1_2_781)"/>
</svg>
