<svg width="185" height="204" viewBox="0 0 185 204" fill="none" xmlns="http://www.w3.org/2000/svg">
<g clip-path="url(#clip0_56_840)">
<path d="M93.27 43.3H92.27C64.9 43.3 42.63 65.0201 42.63 91.7101V178.16C42.6379 179.437 43.1519 180.658 44.0593 181.556C44.9667 182.454 46.1933 182.955 47.47 182.95H97.9399L121.71 202.95C122.295 203.443 123.009 203.758 123.768 203.857C124.527 203.956 125.298 203.836 125.99 203.51C126.681 203.188 127.265 202.675 127.675 202.032C128.084 201.389 128.301 200.642 128.3 199.88V182.95H138.06C139.337 182.955 140.563 182.454 141.471 181.556C142.378 180.658 142.892 179.437 142.9 178.16V91.7101C142.91 65.0201 120.64 43.3 93.27 43.3ZM136.91 176.95H122.31V195.6L100.14 176.95H48.64V91.7101C48.64 68.3201 68.22 49.3 92.28 49.3H93.28C117.34 49.3 136.92 68.3001 136.92 91.7101L136.91 176.95Z" fill="#254C50"/>
<path d="M1.84998 172.55L29.15 182.1V176.29L24.24 174.66V163.77L29.15 162.14V156.29L1.84998 165.88V172.55ZM19.21 165.45V172.94L8.04993 169.2L19.21 165.45Z" fill="#254C50"/>
<path d="M21.4699 133.07C15.8899 133.07 14.4699 137.68 13.0799 142.01C11.8299 146.14 10.94 147.19 9.25996 147.19C7.57996 147.19 6.52998 145.87 6.52998 143.6C6.49032 142.471 6.80832 141.358 7.43867 140.421C8.06902 139.483 8.97937 138.769 10.0399 138.38L7.42988 133.85C5.55967 134.688 3.97951 136.062 2.88862 137.797C1.79773 139.532 1.24493 141.551 1.29987 143.6C1.29987 148.29 4.29987 152.6 9.41987 152.6C14.5399 152.6 16.3599 148.54 17.5699 144.37C18.7799 140.2 19.5699 138.48 21.5699 138.48C23.0899 138.48 24.4499 139.61 24.4499 142.85C24.5549 144.211 24.2014 145.567 23.4456 146.704C22.6899 147.84 21.5754 148.691 20.28 149.12L22.9699 153.73C27.0299 152.24 29.7199 148.58 29.7199 143C29.7199 137.17 26.5799 133.07 21.4699 133.07Z" fill="#254C50"/>
<path d="M1.84998 127.8H29.15V122.42H16.36L29.15 112.67V106.47L15.11 116.96L1.84998 106.86V113.06L13.9 122.42H1.84998V127.8Z" fill="#254C50"/>
<path d="M7.91 55.47L26.24 65.52L5.21 66.09L4.08 70.55L22.29 81.05L1.39 81.14L0 86.61L28.34 85.92L29.85 79.99L13.64 70.61L32.37 70.05L33.88 64.12L9.3 49.99L7.91 55.47Z" fill="#254C50"/>
<path d="M40.82 36.5L49.18 44.12L52.78 40.17L32.6 21.78L29 25.73L37.01 33.03L30.18 40.52L22.17 33.22L18.54 37.2L38.72 55.59L42.35 51.61L33.99 43.99L40.82 36.5Z" fill="#254C50"/>
<path d="M47.9282 11.6629L43.3302 14.4563L57.5049 37.788L62.1029 34.9946L47.9282 11.6629Z" fill="#254C50"/>
<path d="M81.99 27.59L80.43 22.69L70.51 25.85L63.78 4.73999L58.66 6.37999L66.94 32.39L81.99 27.59Z" fill="#254C50"/>
<path d="M101.89 27.3V22.15L90.39 22.16V16.03H100.72V10.96H90.38V5.15H101.69V0L85 0.01L85.01 27.31L101.89 27.3Z" fill="#254C50"/>
<path d="M131.64 27.37L147.99 17.49L142.69 14.5L131.92 21.49L132.38 8.66003L127.08 5.66003L126.99 24.74L121.75 34.01L126.39 36.64L131.64 27.37Z" fill="#254C50"/>
<path d="M164.77 34.2899C163.036 32.0805 160.687 30.4347 158.018 29.5607C155.349 28.6866 152.481 28.6235 149.776 29.3793C147.072 30.1352 144.652 31.676 142.823 33.807C140.994 35.938 139.838 38.5635 139.501 41.3515C139.164 44.1395 139.661 46.9648 140.93 49.4702C142.198 51.9756 144.181 54.0486 146.628 55.4271C149.075 56.8055 151.875 57.4275 154.676 57.2144C157.476 57.0013 160.15 55.9627 162.36 54.2299C163.85 53.0957 165.098 51.674 166.029 50.049C166.96 48.424 167.555 46.6287 167.78 44.7694C168.005 42.9101 167.854 41.0246 167.337 39.2246C166.82 37.4246 165.947 35.7466 164.77 34.2899ZM159.04 49.99C157.654 51.0392 155.989 51.6556 154.254 51.7617C152.519 51.8677 150.791 51.4587 149.288 50.5859C147.784 49.7132 146.572 48.4157 145.804 46.8564C145.036 45.2972 144.745 43.5456 144.969 41.8218C145.193 40.098 145.922 38.4788 147.063 37.1676C148.204 35.8564 149.707 34.9116 151.384 34.452C153.06 33.9923 154.835 34.0384 156.486 34.5842C158.136 35.13 159.588 36.1514 160.66 37.52C161.406 38.4314 161.957 39.4856 162.281 40.6179C162.604 41.7502 162.693 42.9368 162.541 44.1046C162.389 45.2724 162.001 46.3969 161.399 47.409C160.796 48.421 159.994 49.2994 159.04 49.99Z" fill="#254C50"/>
<path d="M165.72 83.72L183.57 79.38L182.31 74.15L164.87 78.38C162.29 79.01 160.03 78.11 159.16 74.55C158.29 70.99 159.9 69.16 162.48 68.55L179.91 64.32L178.65 59.12L160.8 63.46C155.08 64.85 152.64 70.02 154.05 75.81C155.46 81.6 160.03 85.11 165.72 83.72Z" fill="#254C50"/>
<path d="M162.29 127.55L164.98 122.91C163.756 122.184 162.751 121.142 162.072 119.892C161.392 118.642 161.064 117.232 161.12 115.81C161.12 110.47 164.82 106.96 170.05 106.96C175.28 106.96 179.05 110.47 179.05 115.81C179.105 117.236 178.771 118.65 178.084 119.9C177.397 121.151 176.383 122.191 175.15 122.91L177.84 127.55C179.834 126.314 181.474 124.584 182.601 122.527C183.727 120.469 184.303 118.155 184.27 115.81C184.172 112.111 182.633 108.595 179.982 106.014C177.33 103.432 173.776 101.987 170.075 101.987C166.374 101.987 162.82 103.432 160.168 106.014C157.517 108.595 155.978 112.111 155.88 115.81C155.838 118.155 156.406 120.471 157.53 122.529C158.654 124.587 160.294 126.318 162.29 127.55Z" fill="#254C50"/>
<path d="M156.4 136.11L161.31 137.75V148.63L156.4 150.27V156.12L183.72 146.55V139.88L156.42 130.32L156.4 136.11ZM166.34 139.47L177.5 143.21L166.34 146.95V139.47Z" fill="#254C50"/>
<path d="M156.4 166.11H173.09L156.4 177.81V181.91H183.7V176.52H167.05L183.7 164.82V160.73H156.4V166.11Z" fill="#254C50"/>
</g>
<defs>
<clipPath id="clip0_56_840">
<rect width="184.25" height="203.89" fill="white"/>
</clipPath>
</defs>
</svg>
